<?xml version="1.0" standalone="no"?>
<!DOCTYPE svg PUBLIC "-//W3C//DTD SVG 20010904//EN"
 "http://www.w3.org/TR/2001/REC-SVG-20010904/DTD/svg10.dtd">
<svg version="1.0" xmlns="http://www.w3.org/2000/svg"
 width="1024.000000pt" height="1024.000000pt" viewBox="0 0 1024.000000 1024.000000"
 preserveAspectRatio="xMidYMid meet">

<g transform="translate(0.000000,1024.000000) scale(0.100000,-0.100000)"
fill="#000000" stroke="none">
<path d="M4910 8809 c-557 -58 -1101 -306 -1499 -685 -444 -422 -714 -1002
-772 -1656 -9 -100 -11 -721 -7 -2479 3 -1291 8 -2351 12 -2358 9 -13 4962
-16 4984 -2 10 6 12 469 9 2422 -3 2203 -5 2425 -20 2538 -70 514 -234 915
-519 1272 -151 189 -416 420 -648 564 -474 294 -1041 435 -1540 384z m555
-404 c457 -69 835 -262 1165 -594 344 -347 521 -695 603 -1186 l21 -130 3
-2222 c2 -1223 1 -2223 -2 -2223 -3 0 -65 24 -138 54 -185 75 -512 209 -514
210 -1 1 -3 1011 -4 2244 -1 1234 -6 2245 -9 2247 -4 2 -182 -31 -396 -75
-214 -43 -621 -126 -904 -184 -283 -58 -663 -135 -845 -172 -181 -37 -336 -72
-343 -77 -10 -8 -12 -322 -12 -1555 0 -1240 -2 -1548 -12 -1558 -10 -9 -1032
-527 -1069 -542 -13 -5 -11 3610 1 3759 48 563 238 1004 590 1373 357 373 801
595 1295 645 127 14 440 6 570 -14z"/>
</g>
</svg>
